<?xml version="1.0" encoding="iso-8859-1"?>
<!-- Generator: Adobe Illustrator 23.1.1, SVG Export Plug-In . SVG Version: 6.00 Build 0)  -->
<svg version="1.1" id="_x31_-outline-expand" xmlns="http://www.w3.org/2000/svg" xmlns:xlink="http://www.w3.org/1999/xlink"
	 x="0px" y="0px" viewBox="0 0 64 64" style="enable-background:new 0 0 64 64;" xml:space="preserve">
<path style="fill:#62C4C3;" d="M55,17H39.479c-3.103,0-5.694,2.366-5.975,5.457L33,28l-8,6l4,5l10-7v-8h16v14h6V23
	C61,19.687,58.313,17,55,17z"/>
<polygon style="fill:#62C4C3;" points="39,24 39,38 35,62 43,62 47,38 47,62 55,62 55,24 "/>
<circle style="fill:#62C4C3;" cx="47" cy="10" r="7"/>
<rect x="10" y="3" style="fill:#EFBC2E;" width="2" height="4"/>
<rect x="9" y="2" style="fill:#EFBC2E;" width="4" height="2"/>
<rect x="3.937" y="6.5" transform="matrix(0.5 -0.866 0.866 0.5 -4.8925 8.5257)" style="fill:#EFBC2E;" width="2" height="4"/>
<rect x="1.206" y="6.5" transform="matrix(0.4999 -0.8661 0.8661 0.4999 -4.8925 6.5269)" style="fill:#EFBC2E;" width="4" height="2"/>
<rect x="2.938" y="14.5" transform="matrix(0.8661 -0.4999 0.4999 0.8661 -7.0875 4.5442)" style="fill:#EFBC2E;" width="4" height="2"/>
<rect x="2.205" y="14.5" transform="matrix(0.866 -0.5 0.5 0.866 -7.8209 3.8137)" style="fill:#EFBC2E;" width="2" height="4"/>
<rect x="10" y="17" style="fill:#EFBC2E;" width="2" height="4"/>
<rect x="9" y="20" style="fill:#EFBC2E;" width="4" height="2"/>
<rect x="16.062" y="13.5" transform="matrix(0.5 -0.866 0.866 0.5 -4.8923 22.5259)" style="fill:#EFBC2E;" width="2" height="4"/>
<rect x="16.795" y="15.5" transform="matrix(0.4999 -0.8661 0.8661 0.4999 -4.8915 24.5287)" style="fill:#EFBC2E;" width="4" height="2"/>
<rect x="15.063" y="7.5" transform="matrix(0.8661 -0.4999 0.4999 0.8661 -1.9642 9.6683)" style="fill:#EFBC2E;" width="4" height="2"/>
<rect x="17.794" y="5.5" transform="matrix(0.866 -0.5 0.5 0.866 -1.2319 10.4026)" style="fill:#EFBC2E;" width="2" height="4"/>
<circle style="fill:#AA494A;" cx="11" cy="12" r="6"/>
<circle style="fill:#D36767;" cx="11" cy="12" r="4"/>
<polygon style="fill:#3A4249;" points="31.707,16.707 30.293,15.293 33.586,12 30.293,8.707 31.707,7.293 36.414,12 "/>
<rect x="25" y="11" style="fill:#3A4249;" width="10" height="2"/>
<rect x="21" y="11" style="fill:#3A4249;" width="2" height="2"/>
<path style="fill:#3A4249;" d="M45.335,13.709c-1.217-1.21-3.063-1.517-4.594-0.762l-0.883-1.795
	c2.298-1.13,5.065-0.672,6.887,1.138L45.335,13.709z"/>
<rect x="46" y="21" style="fill:#3A4249;" width="2" height="8"/>
<rect x="46" y="31" style="fill:#3A4249;" width="2" height="2"/>
<rect x="55" y="24" style="fill:#42A5B2;" width="2" height="14"/>
<rect x="39" y="24" style="fill:#42A5B2;" width="2" height="8"/>
</svg>
