<?xml version="1.0" encoding="iso-8859-1"?>
<!-- Generator: Adobe Illustrator 19.0.0, SVG Export Plug-In . SVG Version: 6.00 Build 0)  -->
<svg version="1.1" id="Capa_1" xmlns="http://www.w3.org/2000/svg" xmlns:xlink="http://www.w3.org/1999/xlink" x="0px" y="0px"
	 viewBox="0 0 512 512" style="enable-background:new 0 0 512 512;" xml:space="preserve">
<linearGradient id="SVGID_1_" gradientUnits="userSpaceOnUse" x1="0" y1="258" x2="512" y2="258" gradientTransform="matrix(1 0 0 -1 0 514)">
	<stop  offset="0" style="stop-color:#80D8FF"/>
	<stop  offset="1" style="stop-color:#EA80FC"/>
</linearGradient>
<path style="fill:url(#SVGID_1_);" d="M315.409,249.231C345.854,225.711,365.5,188.86,365.5,147.5C365.5,76.645,307.855,19,237,19
	S108.5,76.645,108.5,147.5c0,41.359,19.646,78.211,50.091,101.731C68.293,280.794,0,367.427,0,473c0,11.046,8.954,20,20,20h434
	c11.046,0,20-8.954,20-20C474,367.395,405.65,280.774,315.409,249.231z M148.5,147.5c0-48.799,39.701-88.5,88.5-88.5
	s88.5,39.701,88.5,88.5S285.799,236,237,236S148.5,196.299,148.5,147.5z M41.007,453C51.061,353.73,135.123,276,237,276
	s185.939,77.73,195.993,177H41.007z M512,147.5c0,11.046-8.954,20-20,20h-76c-11.046,0-20-8.954-20-20s8.954-20,20-20h76
	C503.046,127.5,512,136.454,512,147.5z"/>
<g>
</g>
<g>
</g>
<g>
</g>
<g>
</g>
<g>
</g>
<g>
</g>
<g>
</g>
<g>
</g>
<g>
</g>
<g>
</g>
<g>
</g>
<g>
</g>
<g>
</g>
<g>
</g>
<g>
</g>
</svg>
